<svg width="20" height="14" fill="none" xmlns="http://www.w3.org/2000/svg"><path d="M9.306 4.08c.376-.088.694.233.694.62v1A1.3 1.3 0 0011.3 7h1c.387 0 .708.318.62.694A3.001 3.001 0 119.305 4.08z" fill="#505050"/><path fill-rule="evenodd" clip-rule="evenodd" d="M10 0C5.12 0 1.866 3.655.437 5.683a2.267 2.267 0 000 2.634C1.867 10.345 5.119 14 10 14c4.88 0 8.134-3.655 9.563-5.683a2.266 2.266 0 000-2.634C18.133 3.655 14.881 0 10 0zM3.709 3.927a15.063 15.063 0 00-2.21 2.504.967.967 0 000 1.138c.522.74 1.263 1.653 2.21 2.504A6.972 6.972 0 013 7c0-1.102.255-2.145.709-3.073zM10 12.7a5.7 5.7 0 110-11.4 5.7 5.7 0 010 11.4zm6.291-8.773c.947.85 1.688 1.764 2.21 2.504a.967.967 0 010 1.138 15.06 15.06 0 01-2.21 2.504A6.97 6.97 0 0017 7a6.972 6.972 0 00-.709-3.073z" fill="#505050"/></svg>